<?xml version="1.0" encoding="UTF-8"?>
<svg xmlns="http://www.w3.org/2000/svg" xmlns:xlink="http://www.w3.org/1999/xlink" width="2040" height="2040" viewBox="0 0 2040 2040">
<path fill-rule="nonzero" fill="rgb(13.729858%, 12.159729%, 12.548828%)" fill-opacity="1" d="M 987.179688 1258.292969 C 1004.339844 1258.292969 1019.878906 1265.25 1031.128906 1276.496094 C 1042.378906 1287.746094 1049.328125 1303.285156 1049.328125 1320.449219 C 1049.328125 1337.609375 1042.378906 1353.148438 1031.128906 1364.398438 C 1019.878906 1375.644531 1004.339844 1382.601562 987.179688 1382.601562 C 970.019531 1382.601562 954.476562 1375.644531 943.230469 1364.394531 C 931.984375 1353.148438 925.023438 1337.609375 925.023438 1320.449219 C 925.023438 1303.285156 931.984375 1287.746094 943.230469 1276.5 C 954.476562 1265.253906 970.019531 1258.292969 987.179688 1258.292969 Z M 1007.511719 1300.113281 C 1002.308594 1294.914062 995.121094 1291.695312 987.179688 1291.695312 C 979.238281 1291.695312 972.050781 1294.914062 966.847656 1300.117188 C 961.644531 1305.316406 958.425781 1312.507812 958.425781 1320.449219 C 958.425781 1328.386719 961.644531 1335.578125 966.847656 1340.777344 C 972.050781 1345.980469 979.238281 1349.199219 987.179688 1349.199219 C 995.121094 1349.199219 1002.308594 1345.980469 1007.511719 1340.78125 C 1012.710938 1335.578125 1015.929688 1328.386719 1015.929688 1320.449219 C 1015.929688 1312.507812 1012.710938 1305.316406 1007.511719 1300.113281 "/>
<path fill-rule="nonzero" fill="rgb(13.729858%, 12.159729%, 12.548828%)" fill-opacity="1" d="M 1251.308594 1258.292969 C 1268.46875 1258.292969 1284.011719 1265.253906 1295.261719 1276.5 C 1306.511719 1287.746094 1313.460938 1303.289062 1313.460938 1320.449219 C 1313.460938 1337.609375 1306.5 1353.148438 1295.261719 1364.398438 C 1284.011719 1375.644531 1268.46875 1382.601562 1251.308594 1382.601562 C 1234.148438 1382.601562 1218.609375 1375.644531 1207.359375 1364.398438 C 1196.109375 1353.148438 1189.148438 1337.613281 1189.148438 1320.449219 C 1189.148438 1303.289062 1196.109375 1287.746094 1207.359375 1276.5 C 1218.609375 1265.253906 1234.148438 1258.292969 1251.308594 1258.292969 Z M 1271.640625 1300.117188 C 1266.441406 1294.914062 1259.25 1291.695312 1251.308594 1291.695312 C 1243.371094 1291.695312 1236.179688 1294.914062 1230.980469 1300.117188 C 1225.769531 1305.316406 1222.558594 1312.507812 1222.558594 1320.449219 C 1222.558594 1328.390625 1225.769531 1335.578125 1230.980469 1340.78125 C 1236.179688 1345.980469 1243.371094 1349.199219 1251.308594 1349.199219 C 1259.25 1349.199219 1266.441406 1345.980469 1271.640625 1340.78125 C 1276.839844 1335.578125 1280.058594 1328.390625 1280.058594 1320.449219 C 1280.058594 1312.507812 1276.839844 1305.320312 1271.640625 1300.117188 "/>
<path fill-rule="nonzero" fill="rgb(13.729858%, 12.159729%, 12.548828%)" fill-opacity="1" d="M 544.507812 690.800781 C 535.285156 690.800781 527.808594 683.320312 527.808594 674.101562 C 527.808594 664.878906 535.285156 657.398438 544.507812 657.398438 L 737.816406 657.398438 C 745.484375 657.398438 751.945312 662.570312 753.90625 669.609375 L 831.011719 880.640625 C 834.148438 889.28125 829.679688 898.839844 821.03125 901.96875 C 812.386719 905.101562 802.835938 900.640625 799.699219 891.988281 L 726.1875 690.800781 L 544.507812 690.800781 "/>
<path fill-rule="nonzero" fill="rgb(0%, 0%, 0%)" fill-opacity="1" d="M 961.703125 1134.542969 C 950.621094 1134.542969 940.53125 1139.089844 933.207031 1146.414062 C 925.882812 1153.738281 921.335938 1163.828125 921.335938 1174.910156 C 921.335938 1185.996094 925.882812 1196.085938 933.207031 1203.410156 C 940.53125 1210.734375 950.617188 1215.28125 961.703125 1215.28125 L 1333.859375 1215.28125 C 1343.039062 1215.28125 1350.558594 1222.796875 1350.558594 1231.980469 C 1350.558594 1241.167969 1343.039062 1248.683594 1333.859375 1248.683594 L 961.703125 1248.683594 C 941.398438 1248.683594 922.949219 1240.386719 909.589844 1227.027344 C 896.226562 1213.664062 887.933594 1195.21875 887.933594 1174.910156 C 887.933594 1154.609375 896.226562 1136.160156 909.589844 1122.796875 C 922.949219 1109.4375 941.398438 1101.140625 961.703125 1101.140625 L 961.703125 1134.542969 "/>
<path fill-rule="nonzero" fill="rgb(13.729858%, 12.159729%, 12.548828%)" fill-opacity="1" d="M 870.28125 1085.328125 L 791.136719 868.730469 C 790.175781 866.089844 789.355469 863.441406 788.679688 860.789062 L 823.699219 860.789062 L 901.59375 1073.976562 C 905.203125 1083.855469 911.878906 1091.734375 920.257812 1096.78125 C 928.632812 1101.832031 938.742188 1104.054688 949.210938 1102.632812 L 1386.050781 1043.132812 C 1394.550781 1041.976562 1402.121094 1038.671875 1408.261719 1033.640625 L 1408.289062 1033.679688 C 1414.410156 1028.660156 1419.121094 1021.871094 1421.941406 1013.738281 L 1476.28125 856.640625 C 1478.710938 849.609375 1479.410156 842.550781 1478.429688 835.761719 C 1477.46875 829.039062 1474.800781 822.488281 1470.46875 816.410156 C 1466.140625 810.328125 1460.820312 805.671875 1454.78125 802.550781 C 1448.800781 799.46875 1441.910156 797.859375 1434.378906 797.859375 L 800.324219 797.859375 L 800.460938 797.660156 C 807.949219 786.949219 817.324219 778.671875 828.09375 773.058594 C 838.929688 767.410156 851.085938 764.460938 864.058594 764.460938 L 1434.378906 764.460938 C 1447.191406 764.460938 1459.238281 767.359375 1470.039062 772.941406 C 1480.789062 778.480469 1490.128906 786.609375 1497.609375 797.101562 C 1505.078125 807.601562 1509.71875 819.089844 1511.441406 831.058594 C 1513.160156 842.960938 1511.941406 855.269531 1507.71875 867.46875 L 1453.378906 1024.570312 C 1448.488281 1038.699219 1440.199219 1050.554688 1429.398438 1059.40625 L 1429.371094 1059.433594 L 1429.398438 1059.472656 C 1418.609375 1068.316406 1405.339844 1074.121094 1390.488281 1076.140625 L 953.648438 1135.640625 C 935.398438 1138.125 917.730469 1134.21875 903.035156 1125.355469 C 888.332031 1116.492188 876.617188 1102.667969 870.28125 1085.328125 "/>
<path fill-rule="evenodd" fill="rgb(0%, 0%, 0%)" fill-opacity="1" d="M 781.046875 764.460938 L 975.855469 764.460938 L 975.855469 797.859375 L 781.046875 797.859375 L 781.046875 764.460938 "/>
</svg>
